<?xml version="1.0" encoding="utf-8"?>
<!-- Generator: Adobe Illustrator 24.1.1, SVG Export Plug-In . SVG Version: 6.00 Build 0)  -->
<svg version="1.1" id="레이어_1" xmlns="http://www.w3.org/2000/svg" xmlns:xlink="http://www.w3.org/1999/xlink" x="0px"
	 y="0px" viewBox="0 0 50 50" style="enable-background:new 0 0 50 50;" xml:space="preserve">
<style type="text/css">
	.st0{fill:#EEEEEE;}
</style>
<g id="Layer_1">
	<circle class="st0" cx="25" cy="25.6" r="23"/>
	<path d="M25,1C11.8,1,1,11.8,1,25c0,7.1,3.1,13.5,8,17.9v0l0.3,0.3c0.1,0.1,0.1,0.1,0.2,0.1c0.4,0.4,0.9,0.7,1.3,1
		c0.1,0.1,0.2,0.2,0.4,0.3c0.5,0.3,1,0.7,1.5,1c0.1,0.1,0.2,0.1,0.3,0.1c0.6,0.3,1.1,0.6,1.7,0.9c0,0,0,0,0,0
		c1.2,0.6,2.6,1.1,3.9,1.5c0,0,0,0,0.1,0c0.6,0.2,1.3,0.3,2,0.4c0.1,0,0.1,0,0.2,0c0.6,0.1,1.3,0.2,1.9,0.3c0.1,0,0.1,0,0.2,0
		c0.7,0.1,1.3,0.1,2,0.1s1.3,0,2-0.1c0.1,0,0.1,0,0.2,0c0.7-0.1,1.3-0.2,1.9-0.3c0.1,0,0.1,0,0.2,0c0.7-0.1,1.3-0.3,2-0.4
		c0,0,0,0,0.1,0c1.4-0.4,2.7-0.9,3.9-1.5c0,0,0,0,0,0c0.6-0.3,1.2-0.6,1.7-0.9c0.1,0,0.2-0.1,0.3-0.1c0.5-0.3,1-0.6,1.5-1
		c0.1-0.1,0.2-0.2,0.4-0.3c0.5-0.3,0.9-0.7,1.3-1c0.1-0.1,0.1-0.1,0.2-0.1l0.3-0.3v0c4.9-4.4,8-10.8,8-17.9C49,11.8,38.2,1,25,1z
		 M25,25c-4.4,0-8-3.6-8-8s3.6-8,8-8s8,3.6,8,8S29.4,25,25,25z M28,27c6.1,0,11,4.9,11,11v4c0,0-0.1,0.1-0.1,0.1
		c-0.4,0.3-0.8,0.6-1.2,0.9c-0.1,0.1-0.2,0.1-0.3,0.2c-0.4,0.3-0.9,0.6-1.4,0.9c-0.1,0-0.2,0.1-0.3,0.1c-0.5,0.3-1,0.5-1.5,0.8
		c-0.1,0-0.1,0-0.2,0.1c-1.7,0.8-3.4,1.3-5.2,1.6c-0.1,0-0.1,0-0.2,0c-0.6,0.1-1.1,0.2-1.7,0.2c-0.1,0-0.2,0-0.2,0
		C26.2,47,25.6,47,25,47s-1.2,0-1.8-0.1c-0.1,0-0.2,0-0.2,0c-0.6-0.1-1.1-0.1-1.7-0.2c-0.1,0-0.1,0-0.2,0c-1.8-0.3-3.6-0.9-5.2-1.6
		c-0.1,0-0.1,0-0.2-0.1c-0.5-0.2-1-0.5-1.5-0.8c-0.1,0-0.2-0.1-0.3-0.1c-0.5-0.3-0.9-0.6-1.4-0.9c-0.1-0.1-0.2-0.1-0.3-0.2
		c-0.4-0.3-0.8-0.6-1.2-0.9c0,0-0.1-0.1-0.1-0.1v-4c0-6.1,4.9-11,11-11H28z M41,40.1V38c0-6.3-4.5-11.5-10.4-12.7
		c2.6-1.8,4.4-4.8,4.4-8.3c0-5.5-4.5-10-10-10s-10,4.5-10,10c0,3.4,1.7,6.5,4.4,8.3C13.5,26.5,9,31.7,9,38v2.1C5.3,36.1,3,30.8,3,25
		C3,12.9,12.9,3,25,3s22,9.9,22,22C47,30.8,44.7,36.1,41,40.1z"/>
</g>
</svg>
